<?xml version="1.0" encoding="utf-8"?>
<!-- Generator: Adobe Illustrator 25.4.1, SVG Export Plug-In . SVG Version: 6.00 Build 0)  -->
<svg version="1.1" id="Layer_1" xmlns="http://www.w3.org/2000/svg" xmlns:xlink="http://www.w3.org/1999/xlink" x="0px" y="0px"
	 viewBox="0 0 300 76.4" style="enable-background:new 0 0 300 76.4;" xml:space="preserve">
<style type="text/css">
	.st0{fill:#55C1E9;}
	.st1{fill:#1E22AA;}
	.st2{fill:#FFFFFF;}
</style>
<g>
	<path class="st0" d="M262.2,0c-20.9,0-37.8,17.1-37.8,38.2s16.9,38.2,37.8,38.2c20.9,0,37.8-17.1,37.8-38.2S283.1,0,262.2,0z"/>
	<g>
		<g id="HFCtype_2_">
			<path class="st1" d="M162.3,35.9c-1-0.3-2-0.7-3.1-1c-1.1-0.3-2.1-0.7-3-1.1c-0.9-0.5-1.7-1-2.3-1.7c-0.7-0.7-1-1.7-1-2.8
				c0-1.6,0.6-2.8,1.9-3.8c1.2-0.9,2.7-1.4,4.5-1.4c1.4,0,2.8,0.3,4.3,0.9c1.2,0.5,2.4,1.2,3.5,2l4.2-8.4c-2.1-1.1-4.3-1.9-6.6-2.5
				c-5.2-1.4-10.2-1.3-14,0.1c-2,0.7-3.6,1.8-5,3.1c-1.3,1.3-2.4,3-3.2,4.9c-0.7,1.9-1.1,4-1.1,6.4c0,2.3,0.3,4.3,1,5.7
				c0.7,1.5,1.6,2.7,2.7,3.7c1.2,1,2.5,1.8,4,2.4c1.6,0.6,3.2,1.2,4.7,1.7c1.3,0.5,2.5,0.9,3.6,1.3c1,0.4,1.9,0.9,2.5,1.4
				c0.7,0.5,1.2,1.2,1.5,1.8c0.3,0.7,0.5,1.5,0.5,2.3c0,1.5-0.6,2.8-1.8,4c-1.2,1.1-2.9,1.7-5.2,1.7c-1.9,0-3.9-0.5-5.8-1.3
				c-1.6-0.8-3.3-1.8-5-3.3l-4.5,8.8c4.9,3.3,10.3,5,16,5c2.9,0,5.4-0.4,7.7-1.2v0c2.2-0.8,4.1-1.9,5.6-3.3c1.5-1.4,2.7-3.1,3.5-5
				c0.8-2,1.2-4.2,1.2-6.6c0-3.6-0.9-6.5-2.7-8.7C169.2,39.1,166.3,37.3,162.3,35.9z"/>
			<path class="st1" d="M212.9,41.3c-1.8-2.2-4.7-4-8.7-5.4c-1-0.3-2-0.7-3.1-1c-1.1-0.3-2.1-0.7-3-1.1c-0.9-0.5-1.7-1-2.3-1.7
				c-0.7-0.7-1-1.7-1-2.8c0-1.6,0.6-2.8,1.9-3.8c1.2-0.9,2.7-1.4,4.5-1.4c1.4,0,2.8,0.3,4.3,0.9c1.2,0.5,2.4,1.2,3.5,2l4.2-8.4
				c-2.1-1.1-4.3-1.9-6.6-2.5c-5.2-1.4-10.2-1.3-14,0.1c-2,0.7-3.6,1.8-5,3.1c-1.3,1.3-2.4,3-3.2,4.9c-0.7,1.9-1.1,4-1.1,6.4
				c0,2.3,0.3,4.3,1,5.7c0.7,1.5,1.6,2.7,2.7,3.7c1.2,1,2.5,1.8,4,2.4c1.6,0.6,3.2,1.2,4.7,1.7c1.3,0.5,2.5,0.9,3.6,1.3
				c1,0.4,1.9,0.9,2.5,1.4c0.7,0.5,1.2,1.2,1.5,1.8c0.3,0.7,0.5,1.5,0.5,2.3c0,1.5-0.6,2.8-1.8,4c-1.2,1.1-2.9,1.7-5.2,1.7
				c-1.9,0-3.9-0.5-5.8-1.3c-1.6-0.8-3.3-1.8-5-3.3l-4.5,8.8c4.9,3.3,10.3,5,16,5c2.9,0,5.4-0.4,7.7-1.2v0c2.2-0.8,4.1-1.9,5.6-3.3
				c1.5-1.4,2.7-3.1,3.5-5c0.8-2,1.2-4.2,1.2-6.6C215.6,46.4,214.7,43.5,212.9,41.3z"/>
			<polygon class="st1" points="84.5,16.1 84.5,65.1 95,65.1 95,43.5 107.5,57.3 119.7,43.6 119.9,65.1 130.2,65.1 130.2,16.1 
				107.5,42.1 			"/>
			<polygon class="st1" points="35.2,35.3 10.5,35.3 10.5,16.3 0,16.3 0,35.3 0,35.3 0,46.1 0,46.1 0,65.1 10.5,65.1 10.5,46.1 
				35.2,46.1 35.2,65.1 45.8,65.1 45.8,16.3 35.2,16.3 			"/>
			<rect x="59.9" y="16.3" class="st1" width="10.5" height="48.8"/>
		</g>
	</g>
	<g>
		<path class="st2" d="M241.2,52.3l-0.1-2.3c4.4-4.3,7.4-7.5,9.4-9.9c2.3-2.8,3.5-5,3.5-7.3c0-2.8-1.7-4.6-4.8-4.6
			c-1.9,0-3.7,0.6-5.6,1.9l-1.9-4.3c2.4-1.6,4.9-2.6,8-2.6c6.1,0,9.8,3.8,9.8,8.7c0,2.9-1.2,5.7-3.8,9.1c-1.6,2-3.6,4.2-6,6.5H260
			v4.8H241.2z"/>
		<path class="st2" d="M264.5,52.3l-0.1-2.3c4.4-4.3,7.4-7.5,9.4-9.9c2.3-2.8,3.5-5,3.5-7.3c0-2.8-1.7-4.6-4.8-4.6
			c-1.9,0-3.7,0.6-5.6,1.9l-1.8-4.3c2.4-1.6,4.9-2.6,8-2.6c6.1,0,9.8,3.8,9.8,8.7c0,2.9-1.2,5.7-3.8,9.1c-1.6,2-3.6,4.2-6,6.5h10.3
			v4.8H264.5z"/>
	</g>
</g>
</svg>
